<?xml version="1.0" standalone="yes"?>
<svg xmlns="http://www.w3.org/2000/svg" width="500px" height="501px" viewBox="0 0 600 501">
<path style="fill:#232f3f; stroke:none;" d="M0 0L0 381L606 381L606 0L0 0z"/>
<path style="fill:#6f6049; stroke:none;" d="M145 53L145 54L155 54L145 53M456 53L456 54L459 54L456 53z"/>
<path style="fill:#959ba2; stroke:none;" d="M459 53L459 54L470 54L459 53z"/>
<path style="fill:#6f6049; stroke:none;" d="M470 53L470 54L473 54L470 53M135.667 54.3333L136.333 54.6667L135.667 54.3333z"/>
<path style="fill:#959ba2; stroke:none;" d="M137 54L137 55L140 55L137 54z"/>
<path style="fill:#fefefe; stroke:none;" d="M178 117C159.535 115.492 142.591 110.182 124 115.428C93.4392 124.053 80.5507 166.451 107.001 187.62C129.921 205.964 161.965 193.023 180 175C181.668 180.778 185.496 188.883 191.09 191.817C196.672 194.745 208.438 187.87 209.639 181.96C210.579 177.334 206.778 172.163 205.229 168C203.173 162.474 202.969 156.796 202.285 151C199.371 126.302 209.083 95.4216 195.521 73C181.977 50.6083 148.226 51.6093 126 56.8843C113.735 59.7951 97.1752 64.65 102.434 80.8519C103.764 84.951 107.956 83.4728 111 82.4089C119.833 79.3215 128.589 75.8394 138 75C142.895 74.5634 147.1 74.2585 152 74.8449C176.381 77.7625 178 96.2701 178 117z"/>
<path style="fill:#959ba2; stroke:none;" d="M160 54L160 55L163 55L160 54z"/>
<path style="fill:#6f6049; stroke:none;" d="M163.667 54.3333L164.333 54.6667L163.667 54.3333M450 54L451 55L450 54z"/>
<path style="fill:#959ba2; stroke:none;" d="M451.667 54.3333L452.333 54.6667L451.667 54.3333z"/>
<path style="fill:#fefefe; stroke:none;" d="M453 54.4391C445.008 55.6971 436.457 58.5546 430 63.5293C410.823 78.3055 409.251 107.228 429 122.471C440.004 130.963 455.077 133.412 468 137.671C477.569 140.824 489.705 146.883 487.667 159C483.824 181.847 448.398 176.985 433 172.573C428.688 171.337 419.582 165.545 415.318 168.071C407.215 172.871 415.392 186.499 421.001 189.099C435.972 196.038 455.747 198.119 472 195.561C480.353 194.246 489.049 191.439 496 186.56C501.81 182.482 506.144 177.407 509.215 171C525.277 137.478 493.549 121.278 467 113.025C456.702 109.825 440.013 105.386 439.475 92C438.581 69.8029 473.678 72.6625 487 76.5903C490.985 77.7653 499.489 82.9795 503.397 79.9684C509.102 75.5719 503.763 63.4205 498.985 60.8248C486.075 53.8128 467.348 52.1805 453 54.4391z"/>
<path style="fill:#959ba2; stroke:none;" d="M476.667 54.3333L477.333 54.6667L476.667 54.3333z"/>
<path style="fill:#6f6049; stroke:none;" d="M478.667 54.3333L479.333 54.6667L478.667 54.3333M130 55L131 56L130 55z"/>
<path style="fill:#959ba2; stroke:none;" d="M131.667 55.3333L132.333 55.6667L131.667 55.3333M167.667 55.3333L168.333 55.6667L167.667 55.3333z"/>
<path style="fill:#6f6049; stroke:none;" d="M169 55L170 56L169 55M446 55L447 56L446 55z"/>
<path style="fill:#959ba2; stroke:none;" d="M447 55L448 56L447 55M482.667 55.3333L483.333 55.6667L482.667 55.3333z"/>
<path style="fill:#6f6049; stroke:none;" d="M484 55L485 56L484 55M125 56L126 57L125 56z"/>
<path style="fill:#959ba2; stroke:none;" d="M126.667 56.3333L127.333 56.6667L126.667 56.3333M172 56L173 57L172 56z"/>
<path style="fill:#6f6049; stroke:none;" d="M173 56L174 57L173 56z"/>
<path style="fill:#959ba2; stroke:none;" d="M443.667 56.3333L444.333 56.6667L443.667 56.3333M487 56L488 57L487 56z"/>
<path style="fill:#6f6049; stroke:none;" d="M488 56L489 57L488 56M122 57L123 58L122 57z"/>
<path style="fill:#959ba2; stroke:none;" d="M123 57L124 58L123 57M175 57L176 58L175 57z"/>
<path style="fill:#6f6049; stroke:none;" d="M176 57L177 58L176 57M219 57L220 58L219 57z"/>
<path style="fill:#959ba2; stroke:none;" d="M220 57L220 58L239 58L220 57z"/>
<path style="fill:#6f6049; stroke:none;" d="M239 57L240 58L239 57M300 57L301 58L300 57z"/>
<path style="fill:#959ba2; stroke:none;" d="M301 57L301 58L318 58L301 57z"/>
<path style="fill:#6f6049; stroke:none;" d="M318 57L319 58L318 57M380 57L381 58L380 57z"/>
<path style="fill:#959ba2; stroke:none;" d="M381 57L381 58L400 58L381 57z"/>
<path style="fill:#6f6049; stroke:none;" d="M440 57L441 58L440 57z"/>
<path style="fill:#959ba2; stroke:none;" d="M441 57L442 58L441 57M490.667 57.3333L491.333 57.6667L490.667 57.3333z"/>
<path style="fill:#6f6049; stroke:none;" d="M118 58L119 59L118 58z"/>
<path style="fill:#959ba2; stroke:none;" d="M119 58L120 59L119 58M178 58L179 59L178 58z"/>
<path style="fill:#fefefe; stroke:none;" d="M218 58C218.034 70.2276 223.375 82.4152 226.975 94C232.762 112.628 238.242 131.354 243.975 150C247.604 161.801 249.51 178.477 256.417 188.772C259.663 193.609 277.03 193.855 281.772 190.972C287.917 187.237 289.355 169.639 290.79 163C296.265 137.674 301.989 111.941 309 87L310 87C311.134 113 322.707 140.543 328.21 166C329.652 172.671 330.874 189.167 338.055 191.852C343.718 193.97 356.933 194.669 361.298 189.686C366.95 183.232 368.345 170.042 370.999 162C378.648 138.82 385.679 115.372 392.72 92C395.183 83.8231 403.065 69.6518 401.393 61.1481C399.892 53.5155 377.819 57.7534 375.479 64.0046C368.953 81.441 365.642 100.94 361.127 119C357.172 134.818 351.372 150.876 349 167L348 167C344.875 142.806 336.713 118.812 331.424 95C329.226 85.1033 328.383 69.6987 322.86 61.1481C319.782 56.3815 302.826 56.2552 298.225 59.0278C291.864 62.8608 290.678 80.2074 289.21 87C283.57 113.091 276.393 138.855 271 165C259.971 143.03 256.848 112.898 250.873 89C248.955 81.3255 247.977 64.8141 241.606 59.6034C236.713 55.6019 224.055 58 218 58z"/>
<path style="fill:#6f6049; stroke:none;" d="M241 58L242 59L241 58M297 58L298 59L297 58M321 58L322 59L321 58M378 58L379 59L378 58z"/>
<path style="fill:#959ba2; stroke:none;" d="M438 58L439 59L438 58M493 58L494 59L493 58z"/>
<path style="fill:#6f6049; stroke:none;" d="M494 58L495 59L494 58z"/>
<path style="fill:#959ba2; stroke:none;" d="M116 59L117 60L116 59M180 59L181 60L180 59M217 59L217 63L218 63L217 59M242 59L243 60L242 59M296 59L297 60L296 59z"/>
<path style="fill:#6f6049; stroke:none;" d="M322 59L323 60L322 59z"/>
<path style="fill:#959ba2; stroke:none;" d="M377 59L378 60L377 59M401 59L402 60L401 59M436 59L437 60L436 59M496 59L497 60L496 59z"/>
<path style="fill:#6f6049; stroke:none;" d="M497 59L498 60L497 59M113 60L114 61L113 60z"/>
<path style="fill:#959ba2; stroke:none;" d="M114 60L115 61L114 60M182 60L183 61L182 60z"/>
<path style="fill:#6f6049; stroke:none;" d="M243 60L244 61L243 60M376 60L377 61L376 60z"/>
<path style="fill:#959ba2; stroke:none;" d="M434 60L435 61L434 60M498 60L499 61L498 60z"/>
<path style="fill:#6f6049; stroke:none;" d="M499 60L500 61L499 60z"/>
<path style="fill:#959ba2; stroke:none;" d="M111 61L112 62L111 61z"/>
<path style="fill:#6f6049; stroke:none;" d="M184 61L185 62L184 61z"/>
<path style="fill:#959ba2; stroke:none;" d="M243 61L244 62L243 61M295 61L296 62L295 61M323 61L324 62L323 61z"/>
<path style="fill:#6f6049; stroke:none;" d="M432 61L433 62L432 61z"/>
<path style="fill:#959ba2; stroke:none;" d="M500 61L501 62L500 61z"/>
<path style="fill:#6f6049; stroke:none;" d="M108 62L109 63L108 62z"/>
<path style="fill:#959ba2; stroke:none;" d="M109 62L110 63L109 62M185 62L186 63L185 62z"/>
<path style="fill:#6f6049; stroke:none;" d="M375 62L376 63L375 62z"/>
<path style="fill:#959ba2; stroke:none;" d="M431 62L432 63L431 62z"/>
<path style="fill:#6f6049; stroke:none;" d="M502 62L503 63L502 62M106 63L107 64L106 63z"/>
<path style="fill:#959ba2; stroke:none;" d="M107 63L108 64L107 63z"/>
<path style="fill:#6f6049; stroke:none;" d="M187 63L188 64L187 63M217 63L218 64L217 63z"/>
<path style="fill:#959ba2; stroke:none;" d="M244 63L245 64L244 63z"/>
<path style="fill:#6f6049; stroke:none;" d="M294 63L295 64L294 63z"/>
<path style="fill:#959ba2; stroke:none;" d="M375 63L376 64L375 63M401.333 63.6667L401.667 64.3333L401.333 63.6667z"/>
<path style="fill:#6f6049; stroke:none;" d="M429 63L430 64L429 63M503 63L504 64L503 63z"/>
<path style="fill:#959ba2; stroke:none;" d="M105 64L106 65L105 64z"/>
<path style="fill:#6f6049; stroke:none;" d="M188 64L189 65L188 64z"/>
<path style="fill:#959ba2; stroke:none;" d="M294 64L295 65L294 64M324.333 64.6667L324.667 65.3333L324.333 64.6667z"/>
<path style="fill:#6f6049; stroke:none;" d="M428 64L429 65L428 64z"/>
<path style="fill:#959ba2; stroke:none;" d="M189 65L190 66L189 65z"/>
<path style="fill:#6f6049; stroke:none;" d="M374 65L375 66L374 65M401 65L402 66L401 65z"/>
<path style="fill:#959ba2; stroke:none;" d="M427 65L428 66L427 65M504 65L505 66L504 65M190 66L191 67L190 66M218 66L219 67L218 66z"/>
<path style="fill:#6f6049; stroke:none;" d="M245 66L246 67L245 66z"/>
<path style="fill:#959ba2; stroke:none;" d="M374.333 66.6667L374.667 67.3333L374.333 66.6667M426 66L427 67L426 66M102 67L103 68L102 67M191 67L192 68L191 67z"/>
<path style="fill:#6f6049; stroke:none;" d="M218 67L219 68L218 67z"/>
<path style="fill:#959ba2; stroke:none;" d="M245 67L246 68L245 67z"/>
<path style="fill:#6f6049; stroke:none;" d="M293 67L294 68L293 67z"/>
<path style="fill:#959ba2; stroke:none;" d="M400 67L401 68L400 67M425 67L426 68L425 67z"/>
<path style="fill:#6f6049; stroke:none;" d="M505 67L506 68L505 67M192 68L193 69L192 68z"/>
<path style="fill:#959ba2; stroke:none;" d="M293 68L294 69L293 68z"/>
<path style="fill:#6f6049; stroke:none;" d="M325 68L326 69L325 68M400 68L401 69L400 68z"/>
<path style="fill:#959ba2; stroke:none;" d="M424 68L425 69L424 68M505 68L505 79L506 79L505 68z"/>
<path style="fill:#6f6049; stroke:none;" d="M193 69L194 70L193 69z"/>
<path style="fill:#959ba2; stroke:none;" d="M219 69L220 70L219 69M325 69L326 70L325 69z"/>
<path style="fill:#6f6049; stroke:none;" d="M373 69L374 70L373 69z"/>
<path style="fill:#959ba2; stroke:none;" d="M423 69L424 70L423 69z"/>
<path style="fill:#6f6049; stroke:none;" d="M101 70L101 81L102 81L101 70M219 70L220 71L219 70M246 70L247 71L246 70z"/>
<path style="fill:#959ba2; stroke:none;" d="M373 70L374 71L373 70M399 70L400 71L399 70M422 70L423 71L422 70M194 71L195 72L194 71M246 71L247 72L246 71z"/>
<path style="fill:#6f6049; stroke:none;" d="M292 71L293 72L292 71M399 71L400 72L399 71M421 71L422 72L421 71M195 72L196 73L195 72z"/>
<path style="fill:#959ba2; stroke:none;" d="M220.333 72.6667L220.667 73.3333L220.333 72.6667M292.333 72.6667L292.667 73.3333L292.333 72.6667z"/>
<path style="fill:#6f6049; stroke:none;" d="M326 72L327 73L326 72z"/>
<path style="fill:#959ba2; stroke:none;" d="M326 73L327 74L326 73z"/>
<path style="fill:#6f6049; stroke:none;" d="M372 73L373 74L372 73z"/>
<path style="fill:#959ba2; stroke:none;" d="M398 73L399 74L398 73M142 74L142 75L150 75L142 74z"/>
<path style="fill:#6f6049; stroke:none;" d="M196 74L197 75L196 74M247 74L248 75L247 74z"/>
<path style="fill:#959ba2; stroke:none;" d="M372 74L373 75L372 74z"/>
<path style="fill:#6f6049; stroke:none;" d="M398 74L399 75L398 74z"/>
<path style="fill:#959ba2; stroke:none;" d="M419 74L420 75L419 74M457 74L457 75L460 75L457 74z"/>
<path style="fill:#6f6049; stroke:none;" d="M460 74L460 75L463 75L460 74M471 74L471 75L475 75L471 74z"/>
<path style="fill:#959ba2; stroke:none;" d="M475 74L475 75L478 75L475 74M133 75L133 76L136 76L133 75z"/>
<path style="fill:#6f6049; stroke:none;" d="M136 75L137 76L136 75M154.667 75.3333L155.333 75.6667L154.667 75.3333z"/>
<path style="fill:#959ba2; stroke:none;" d="M156.667 75.3333L157.333 75.6667L156.667 75.3333M247 75L248 76L247 75z"/>
<path style="fill:#6f6049; stroke:none;" d="M291 75L292 76L291 75z"/>
<path style="fill:#959ba2; stroke:none;" d="M453 75L454 76L453 75z"/>
<path style="fill:#6f6049; stroke:none;" d="M454 75L455 76L454 75M480.667 75.3333L481.333 75.6667L480.667 75.3333z"/>
<path style="fill:#959ba2; stroke:none;" d="M482.667 75.3333L483.333 75.6667L482.667 75.3333M129 76L130 77L129 76z"/>
<path style="fill:#6f6049; stroke:none;" d="M130 76L131 77L130 76M160 76L161 77L160 76z"/>
<path style="fill:#959ba2; stroke:none;" d="M161 76L162 77L161 76M197 76L198 77L197 76M221 76L222 77L221 76M291.333 76.6667L291.667 77.3333L291.333 76.6667z"/>
<path style="fill:#6f6049; stroke:none;" d="M327 76L328 77L327 76z"/>
<path style="fill:#959ba2; stroke:none;" d="M397.333 76.6667L397.667 77.3333L397.333 76.6667M418 76L419 77L418 76M450 76L451 77L450 76z"/>
<path style="fill:#6f6049; stroke:none;" d="M485 76L486 77L485 76z"/>
<path style="fill:#959ba2; stroke:none;" d="M486 76L487 77L486 76M125 77L126 78L125 77z"/>
<path style="fill:#6f6049; stroke:none;" d="M126 77L127 78L126 77M163 77L164 78L163 77z"/>
<path style="fill:#959ba2; stroke:none;" d="M164 77L165 78L164 77z"/>
<path style="fill:#6f6049; stroke:none;" d="M221 77L222 78L221 77z"/>
<path style="fill:#959ba2; stroke:none;" d="M327.333 77.6667L327.667 78.3333L327.333 77.6667z"/>
<path style="fill:#6f6049; stroke:none;" d="M371 77L372 78L371 77M417 77L418 78L417 77M448 77L449 78L448 77M489 77L490 78L489 77z"/>
<path style="fill:#959ba2; stroke:none;" d="M490 77L491 78L490 77M121.667 78.3333L122.333 78.6667L121.667 78.3333z"/>
<path style="fill:#6f6049; stroke:none;" d="M123 78L124 79L123 78M165 78L166 79L165 78z"/>
<path style="fill:#959ba2; stroke:none;" d="M166 78L167 79L166 78z"/>
<path style="fill:#6f6049; stroke:none;" d="M198 78L199 79L198 78M248 78L249 79L248 78z"/>
<path style="fill:#959ba2; stroke:none;" d="M371 78L372 79L371 78M417 78L418 79L417 78M446 78L447 79L446 78M492 78L493 79L492 78M118.667 79.3333L119.333 79.6667L118.667 79.3333z"/>
<path style="fill:#6f6049; stroke:none;" d="M167 79L168 80L167 79z"/>
<path style="fill:#959ba2; stroke:none;" d="M198 79L199 80L198 79M222 79L223 80L222 79M248 79L249 80L248 79z"/>
<path style="fill:#6f6049; stroke:none;" d="M290.333 79.6667L290.667 80.3333L290.333 79.6667M445 79L446 80L445 79M494 79L495 80L494 79z"/>
<path style="fill:#959ba2; stroke:none;" d="M495 79L496 80L495 79z"/>
<path style="fill:#6f6049; stroke:none;" d="M505 79L506 80L505 79z"/>
<path style="fill:#959ba2; stroke:none;" d="M116 80L117 81L116 80M169 80L170 81L169 80z"/>
<path style="fill:#6f6049; stroke:none;" d="M222 80L223 81L222 80M328 80L329 81L328 80z"/>
<path style="fill:#959ba2; stroke:none;" d="M396 80L397 81L396 80M416 80L417 81L416 80M497 80L498 81L497 80M504 80L505 81L504 80M113 81L114 82L113 81z"/>
<path style="fill:#6f6049; stroke:none;" d="M114 81L115 82L114 81z"/>
<path style="fill:#959ba2; stroke:none;" d="M170 81L171 82L170 81M199 81L200 82L199 81M290 81L291 82L290 81M328.333 81.6667L328.667 82.3333L328.333 81.6667z"/>
<path style="fill:#6f6049; stroke:none;" d="M370 81L371 82L370 81M396 81L397 82L396 81M499 81L500 82L499 81z"/>
<path style="fill:#959ba2; stroke:none;" d="M500 81L500 82L504 82L500 81M102 82L103 83L102 82M110 82L111 83L110 82z"/>
<path style="fill:#6f6049; stroke:none;" d="M111 82L112 83L111 82z"/>
<path style="fill:#959ba2; stroke:none;" d="M171 82L172 83L171 82M223 82L224 83L223 82M249.333 82.6667L249.667 83.3333L249.333 82.6667M370 82L371 83L370 82z"/>
<path style="fill:#6f6049; stroke:none;" d="M415 82L416 83L415 82M442 82L443 83L442 82z"/>
<path style="fill:#959ba2; stroke:none;" d="M108 83L109 84L108 83z"/>
<path style="fill:#6f6049; stroke:none;" d="M223 83L224 84L223 83z"/>
<path style="fill:#959ba2; stroke:none;" d="M395 83L396 84L395 83M415.333 83.6667L415.667 84.3333L415.333 83.6667M441 83L442 84L441 83z"/>
<path style="fill:#6f6049; stroke:none;" d="M104.667 84.3333L105.333 84.6667L104.667 84.3333M172 84L173 85L172 84z"/>
<path style="fill:#959ba2; stroke:none;" d="M200.333 84.6667L200.667 85.3333L200.333 84.6667z"/>
<path style="fill:#6f6049; stroke:none;" d="M289 84L290 85L289 84M395 84L396 85L395 84z"/>
<path style="fill:#959ba2; stroke:none;" d="M173 85L174 86L173 85z"/>
<path style="fill:#6f6049; stroke:none;" d="M250 85L251 86L250 85z"/>
<path style="fill:#959ba2; stroke:none;" d="M289 85L290 86L289 85z"/>
<path style="fill:#6f6049; stroke:none;" d="M329 85L330 86L329 85z"/>
<path style="fill:#959ba2; stroke:none;" d="M369.333 85.6667L369.667 86.3333L369.333 85.6667M440 85L441 86L440 85M224 86L225 87L224 86M250.333 86.6667L250.667 87.3333L250.333 86.6667M329 86L330 87L329 86M394 86L395 87L394 86z"/>
<path style="fill:#6f6049; stroke:none;" d="M414.333 86.6667L414.667 87.3333L414.333 86.6667M440 86L441 87L440 86z"/>
<path style="fill:#959ba2; stroke:none;" d="M174 87L175 88L174 87z"/>
<path style="fill:#6f6049; stroke:none;" d="M224 87L225 88L224 87z"/>
<path style="fill:#959ba2; stroke:none;" d="M309 87L308 90L309 87z"/>
<path style="fill:#6f6049; stroke:none;" d="M394 87L395 88L394 87M201 88L202 89L201 88M288 88L289 89L288 88M368 88L369 89L368 88z"/>
<path style="fill:#959ba2; stroke:none;" d="M414 88L414 98L415 98L414 88M175 89L176 90L175 89M201.333 89.6667L201.667 90.3333L201.333 89.6667M225 89L226 90L225 89z"/>
<path style="fill:#6f6049; stroke:none;" d="M251 89L252 90L251 89z"/>
<path style="fill:#959ba2; stroke:none;" d="M288.333 89.6667L288.667 90.3333L288.333 89.6667z"/>
<path style="fill:#6f6049; stroke:none;" d="M309 89L310 90L309 89M330 89L331 90L330 89z"/>
<path style="fill:#959ba2; stroke:none;" d="M368.333 89.6667L368.667 90.3333L368.333 89.6667M393 89L394 90L393 89M439 89L439 94L440 94L439 89z"/>
<path style="fill:#6f6049; stroke:none;" d="M175 90L176 91L175 90M225 90L226 91L225 90z"/>
<path style="fill:#959ba2; stroke:none;" d="M251.333 90.6667L251.667 91.3333L251.333 90.6667z"/>
<path style="fill:#6f6049; stroke:none;" d="M308 90L309 91L308 90z"/>
<path style="fill:#959ba2; stroke:none;" d="M330 90L331 91L330 90z"/>
<path style="fill:#6f6049; stroke:none;" d="M393 90L394 91L393 90z"/>
<path style="fill:#959ba2; stroke:none;" d="M226 92L227 93L226 92z"/>
<path style="fill:#6f6049; stroke:none;" d="M287 92L288 93L287 92z"/>
<path style="fill:#959ba2; stroke:none;" d="M307.333 92.6667L307.667 93.3333L307.333 92.6667M310 92L311 93L310 92z"/>
<path style="fill:#6f6049; stroke:none;" d="M367 92L368 93L367 92z"/>
<path style="fill:#959ba2; stroke:none;" d="M392.333 92.6667L392.667 93.3333L392.333 92.6667M176 93L177 94L176 93z"/>
<path style="fill:#6f6049; stroke:none;" d="M226 93L227 94L226 93M252 93L253 94L252 93z"/>
<path style="fill:#959ba2; stroke:none;" d="M287.333 93.6667L287.667 94.3333L287.333 93.6667z"/>
<path style="fill:#6f6049; stroke:none;" d="M310 93L311 94L310 93M331 93L332 94L331 93z"/>
<path style="fill:#959ba2; stroke:none;" d="M367.333 93.6667L367.667 94.3333L367.333 93.6667z"/>
<path style="fill:#6f6049; stroke:none;" d="M176 94L177 95L176 94M202.333 94.6667L202.667 95.3333L202.333 94.6667z"/>
<path style="fill:#959ba2; stroke:none;" d="M252.333 94.6667L252.667 95.3333L252.333 94.6667z"/>
<path style="fill:#6f6049; stroke:none;" d="M307 94L308 95L307 94z"/>
<path style="fill:#959ba2; stroke:none;" d="M331.333 94.6667L331.667 95.3333L331.333 94.6667M227.333 95.6667L227.667 96.3333L227.333 95.6667M202 96L202 153L203 153L203 114L202 96z"/>
<path style="fill:#6f6049; stroke:none;" d="M286 96L287 97L286 96z"/>
<path style="fill:#959ba2; stroke:none;" d="M311 96L312 97L311 96z"/>
<path style="fill:#6f6049; stroke:none;" d="M366 96L367 97L366 96z"/>
<path style="fill:#959ba2; stroke:none;" d="M391 96L392 97L391 96z"/>
<path style="fill:#6f6049; stroke:none;" d="M440 96L441 97L440 96M253 97L254 98L253 97z"/>
<path style="fill:#959ba2; stroke:none;" d="M286.333 97.6667L286.667 98.3333L286.333 97.6667M306 97L307 98L306 97z"/>
<path style="fill:#6f6049; stroke:none;" d="M311 97L312 98L311 97M332 97L333 98L332 97z"/>
<path style="fill:#959ba2; stroke:none;" d="M366.333 97.6667L366.667 98.3333L366.333 97.6667z"/>
<path style="fill:#6f6049; stroke:none;" d="M391 97L392 98L391 97z"/>
<path style="fill:#959ba2; stroke:none;" d="M440 97L441 98L440 97M177 98L177 103L178 103L177 98M253.333 98.6667L253.667 99.3333L253.333 98.6667z"/>
<path style="fill:#6f6049; stroke:none;" d="M306 98L307 99L306 98z"/>
<path style="fill:#959ba2; stroke:none;" d="M332.333 98.6667L332.667 99.3333L332.333 98.6667z"/>
<path style="fill:#6f6049; stroke:none;" d="M414.333 98.6667L414.667 99.3333L414.333 98.6667z"/>
<path style="fill:#959ba2; stroke:none;" d="M228 99L229 100L228 99M390 99L391 100L390 99M441 99L442 100L441 99z"/>
<path style="fill:#6f6049; stroke:none;" d="M228 100L229 101L228 100z"/>
<path style="fill:#959ba2; stroke:none;" d="M312.333 100.667L312.667 101.333L312.333 100.667z"/>
<path style="fill:#6f6049; stroke:none;" d="M365 100L366 101L365 100M390 100L391 101L390 100M442 100L443 101L442 100M254 101L255 102L254 101M285 101L286 102L285 101z"/>
<path style="fill:#959ba2; stroke:none;" d="M305 101L306 102L305 101M365 101L366 102L365 101M229 102L230 103L229 102M254.333 102.667L254.667 103.333L254.333 102.667M285 102L286 103L285 102z"/>
<path style="fill:#6f6049; stroke:none;" d="M305 102L306 103L305 102M312 102L313 103L312 102M333 102L334 103L333 102z"/>
<path style="fill:#959ba2; stroke:none;" d="M389 102L390 103L389 102M415 102L416 103L415 102z"/>
<path style="fill:#6f6049; stroke:none;" d="M177 103L177 117L178 117L177 103M229 103L230 104L229 103z"/>
<path style="fill:#959ba2; stroke:none;" d="M333 103L334 104L333 103z"/>
<path style="fill:#6f6049; stroke:none;" d="M389 103L390 104L389 103M415 103L416 104L415 103M445 103L446 104L445 103z"/>
<path style="fill:#959ba2; stroke:none;" d="M313.333 104.667L313.667 105.333L313.333 104.667z"/>
<path style="fill:#6f6049; stroke:none;" d="M364 104L365 105L364 104z"/>
<path style="fill:#959ba2; stroke:none;" d="M446 104L447 105L446 104M230.333 105.667L230.667 106.333L230.333 105.667z"/>
<path style="fill:#6f6049; stroke:none;" d="M255 105L256 106L255 105M284 105L285 106L284 105z"/>
<path style="fill:#959ba2; stroke:none;" d="M304.333 105.667L304.667 106.333L304.333 105.667M364 105L365 106L364 105M388.333 105.667L388.667 106.333L388.333 105.667M416 105L417 106L416 105z"/>
<path style="fill:#6f6049; stroke:none;" d="M448 105L449 106L448 105z"/>
<path style="fill:#959ba2; stroke:none;" d="M255.333 106.667L255.667 107.333L255.333 106.667M284.333 106.667L284.667 107.333L284.333 106.667z"/>
<path style="fill:#6f6049; stroke:none;" d="M313 106L314 107L313 106M334 106L335 107L334 106M416 106L417 107L416 106z"/>
<path style="fill:#959ba2; stroke:none;" d="M449 106L450 107L449 106z"/>
<path style="fill:#6f6049; stroke:none;" d="M304 107L305 108L304 107z"/>
<path style="fill:#959ba2; stroke:none;" d="M334 107L335 108L334 107M451 107L452 108L451 107M314.333 108.667L314.667 109.333L314.333 108.667z"/>
<path style="fill:#6f6049; stroke:none;" d="M363 108L364 109L363 108M417 108L418 109L417 108z"/>
<path style="fill:#959ba2; stroke:none;" d="M453 108L454 109L453 108z"/>
<path style="fill:#6f6049; stroke:none;" d="M454 108L455 109L454 108z"/>
<path style="fill:#959ba2; stroke:none;" d="M231 109L232 110L231 109z"/>
<path style="fill:#6f6049; stroke:none;" d="M256 109L257 110L256 109M283 109L284 110L283 109z"/>
<path style="fill:#959ba2; stroke:none;" d="M303.333 109.667L303.667 110.333L303.333 109.667M363 109L364 110L363 109M387 109L388 110L387 109M456 109L457 110L456 109z"/>
<path style="fill:#6f6049; stroke:none;" d="M231 110L232 111L231 110z"/>
<path style="fill:#959ba2; stroke:none;" d="M256.333 110.667L256.667 111.333L256.333 110.667M283.333 110.667L283.667 111.333L283.333 110.667z"/>
<path style="fill:#6f6049; stroke:none;" d="M314 110L315 111L314 110M335 110L336 111L335 110M418 110L419 111L418 110z"/>
<path style="fill:#959ba2; stroke:none;" d="M458.667 110.333L459.333 110.667L458.667 110.333z"/>
<path style="fill:#6f6049; stroke:none;" d="M303 111L304 112L303 111z"/>
<path style="fill:#959ba2; stroke:none;" d="M335.333 111.667L335.667 112.333L335.333 111.667M419 111L420 112L419 111M461.667 111.333L462.333 111.667L461.667 111.333z"/>
<path style="fill:#6f6049; stroke:none;" d="M137 112L137 113L142 113L137 112z"/>
<path style="fill:#959ba2; stroke:none;" d="M142 112L142 113L145 113L142 112z"/>
<path style="fill:#6f6049; stroke:none;" d="M145 112L145 113L151 113L145 112z"/>
<path style="fill:#959ba2; stroke:none;" d="M232 112L233 113L232 112M315.333 112.667L315.667 113.333L315.333 112.667z"/>
<path style="fill:#6f6049; stroke:none;" d="M362 112L363 113L362 112z"/>
<path style="fill:#959ba2; stroke:none;" d="M386 112L387 113L386 112z"/>
<path style="fill:#6f6049; stroke:none;" d="M419 112L420 113L419 112z"/>
<path style="fill:#959ba2; stroke:none;" d="M465 112L466 113L465 112z"/>
<path style="fill:#6f6049; stroke:none;" d="M466 112L467 113L466 112M130 113L131 114L130 113z"/>
<path style="fill:#959ba2; stroke:none;" d="M131 113L131 114L134 114L131 113M155 113L155 114L159 114L155 113z"/>
<path style="fill:#6f6049; stroke:none;" d="M159 113L160 114L159 113M232 113L233 114L232 113M257 113L258 114L257 113M282 113L283 114L282 113z"/>
<path style="fill:#959ba2; stroke:none;" d="M302.333 113.667L302.667 114.333L302.333 113.667M362 113L363 114L362 113z"/>
<path style="fill:#6f6049; stroke:none;" d="M386 113L387 114L386 113z"/>
<path style="fill:#959ba2; stroke:none;" d="M420 113L421 114L420 113M468 113L469 114L468 113z"/>
<path style="fill:#6f6049; stroke:none;" d="M469 113L470 114L469 113M125 114L126 115L125 114z"/>
<path style="fill:#959ba2; stroke:none;" d="M126.667 114.333L127.333 114.667L126.667 114.333M163.667 114.333L164.333 114.667L163.667 114.333z"/>
<path style="fill:#6f6049; stroke:none;" d="M165.667 114.333L166.333 114.667L165.667 114.333z"/>
<path style="fill:#959ba2; stroke:none;" d="M257 114L258 115L257 114M282.333 114.667L282.667 115.333L282.333 114.667z"/>
<path style="fill:#6f6049; stroke:none;" d="M315 114L316 115L315 114M336 114L337 115L336 114z"/>
<path style="fill:#959ba2; stroke:none;" d="M471 114L472 115L471 114z"/>
<path style="fill:#6f6049; stroke:none;" d="M472 114L473 115L472 114M122 115L123 116L122 115z"/>
<path style="fill:#959ba2; stroke:none;" d="M123 115L124 116L123 115M169.667 115.333L170.333 115.667L169.667 115.333z"/>
<path style="fill:#6f6049; stroke:none;" d="M171 115L172 116L171 115z"/>
<path style="fill:#959ba2; stroke:none;" d="M233 115L234 116L233 115z"/>
<path style="fill:#6f6049; stroke:none;" d="M302 115L303 116L302 115z"/>
<path style="fill:#959ba2; stroke:none;" d="M336.333 115.667L336.667 116.333L336.333 115.667M385 115L386 116L385 115z"/>
<path style="fill:#6f6049; stroke:none;" d="M421 115L422 116L421 115z"/>
<path style="fill:#959ba2; stroke:none;" d="M474 115L475 116L474 115z"/>
<path style="fill:#6f6049; stroke:none;" d="M475 115L476 116L475 115M119 116L120 117L119 116z"/>
<path style="fill:#959ba2; stroke:none;" d="M120 116L121 117L120 116M173.667 116.333L174.333 116.667L173.667 116.333z"/>
<path style="fill:#6f6049; stroke:none;" d="M175 116L176 117L175 116M233 116L234 117L233 116z"/>
<path style="fill:#959ba2; stroke:none;" d="M361.333 116.667L361.667 117.333L361.333 116.667z"/>
<path style="fill:#6f6049; stroke:none;" d="M385 116L386 117L385 116M422 116L423 117L422 116z"/>
<path style="fill:#959ba2; stroke:none;" d="M477 116L478 117L477 116z"/>
<path style="fill:#6f6049; stroke:none;" d="M478 116L479 117L478 116M117 117L118 118L117 117M258 117L259 118L258 117z"/>
<path style="fill:#959ba2; stroke:none;" d="M316 117L317 118L316 117M423 117L424 118L423 117M480.667 117.333L481.333 117.667L480.667 117.333z"/>
<path style="fill:#6f6049; stroke:none;" d="M115 118L116 119L115 118z"/>
<path style="fill:#959ba2; stroke:none;" d="M234.333 118.667L234.667 119.333L234.333 118.667M258 118L259 119L258 118z"/>
<path style="fill:#6f6049; stroke:none;" d="M281 118L282 119L281 118z"/>
<path style="fill:#959ba2; stroke:none;" d="M301 118L302 119L301 118z"/>
<path style="fill:#6f6049; stroke:none;" d="M316 118L317 119L316 118z"/>
<path style="fill:#959ba2; stroke:none;" d="M384 118L385 119L384 118M424 118L425 119L424 118M483.667 118.333L484.333 118.667L483.667 118.333z"/>
<path style="fill:#6f6049; stroke:none;" d="M113 119L114 120L113 119z"/>
<path style="fill:#959ba2; stroke:none;" d="M281 119L282 120L281 119z"/>
<path style="fill:#6f6049; stroke:none;" d="M301 119L302 120L301 119M337 119L338 120L337 119M360 119L361 120L360 119M384 119L385 120L384 119z"/>
<path style="fill:#959ba2; stroke:none;" d="M425 119L426 120L425 119M486 119L487 120L486 119z"/>
<path style="fill:#6f6049; stroke:none;" d="M487 119L488 120L487 119z"/>
<path style="fill:#959ba2; stroke:none;" d="M112 120L113 121L112 120M337 120L338 121L337 120M360.333 120.667L360.667 121.333L360.333 120.667M426 120L427 121L426 120M489 120L490 121L489 120M110 121L111 122L110 121z"/>
<path style="fill:#6f6049; stroke:none;" d="M259 121L260 122L259 121z"/>
<path style="fill:#959ba2; stroke:none;" d="M317 121L318 122L317 121M383.333 121.667L383.667 122.333L383.333 121.667M427 121L428 122L427 121M491 121L492 122L491 121M109 122L110 123L109 122M235 122L236 123L235 122M259 122L260 123L259 122z"/>
<path style="fill:#6f6049; stroke:none;" d="M280 122L281 123L280 122z"/>
<path style="fill:#959ba2; stroke:none;" d="M300 122L301 123L300 122z"/>
<path style="fill:#6f6049; stroke:none;" d="M317 122L318 123L317 122M428 122L429 123L428 122z"/>
<path style="fill:#959ba2; stroke:none;" d="M493 122L494 123L493 122z"/>
<path style="fill:#6f6049; stroke:none;" d="M107 123L108 124L107 123M235 123L236 124L235 123z"/>
<path style="fill:#959ba2; stroke:none;" d="M280.333 123.667L280.667 124.333L280.333 123.667z"/>
<path style="fill:#6f6049; stroke:none;" d="M300 123L301 124L300 123M338 123L339 124L338 123M359 123L360 124L359 123z"/>
<path style="fill:#959ba2; stroke:none;" d="M430 123L431 124L430 123M495 123L496 124L495 123z"/>
<path style="fill:#6f6049; stroke:none;" d="M106 124L107 125L106 124z"/>
<path style="fill:#959ba2; stroke:none;" d="M338 124L339 125L338 124M359.333 124.667L359.667 125.333L359.333 124.667z"/>
<path style="fill:#6f6049; stroke:none;" d="M431 124L432 125L431 124M497 124L498 125L497 124z"/>
<path style="fill:#959ba2; stroke:none;" d="M105 125L106 126L105 125M236 125L237 126L236 125z"/>
<path style="fill:#6f6049; stroke:none;" d="M260 125L261 126L260 125z"/>
<path style="fill:#959ba2; stroke:none;" d="M318 125L319 126L318 125M382 125L383 126L382 125M433 125L434 126L433 125M498 125L499 126L498 125M104 126L105 127L104 126z"/>
<path style="fill:#6f6049; stroke:none;" d="M236 126L237 127L236 126z"/>
<path style="fill:#959ba2; stroke:none;" d="M260 126L261 127L260 126z"/>
<path style="fill:#6f6049; stroke:none;" d="M279 126L280 127L279 126z"/>
<path style="fill:#959ba2; stroke:none;" d="M299 126L300 127L299 126z"/>
<path style="fill:#6f6049; stroke:none;" d="M318 126L319 127L318 126M382 126L383 127L382 126z"/>
<path style="fill:#959ba2; stroke:none;" d="M435 126L436 127L435 126z"/>
<path style="fill:#6f6049; stroke:none;" d="M500 126L501 127L500 126z"/>
<path style="fill:#959ba2; stroke:none;" d="M103 127L104 128L103 127M279.333 127.667L279.667 128.333L279.333 127.667z"/>
<path style="fill:#6f6049; stroke:none;" d="M299 127L300 128L299 127M339 127L340 128L339 127M358 127L359 128L358 127M436 127L437 128L436 127z"/>
<path style="fill:#959ba2; stroke:none;" d="M437 127L438 128L437 127z"/>
<path style="fill:#6f6049; stroke:none;" d="M501 127L502 128L501 127z"/>
<path style="fill:#959ba2; stroke:none;" d="M102 128L103 129L102 128M237.333 128.667L237.667 129.333L237.333 128.667M339.333 128.667L339.667 129.333L339.333 128.667M358.333 128.667L358.667 129.333L358.333 128.667M381 128L382 129L381 128M439 128L440 129L439 128M502 128L503 129L502 128z"/>
<path style="fill:#6f6049; stroke:none;" d="M101 129L102 130L101 129M261 129L262 130L261 129z"/>
<path style="fill:#959ba2; stroke:none;" d="M319.333 129.667L319.667 130.333L319.333 129.667z"/>
<path style="fill:#6f6049; stroke:none;" d="M381 129L382 130L381 129M441 129L442 130L441 129z"/>
<path style="fill:#959ba2; stroke:none;" d="M442 129L443 130L442 129M503 129L504 130L503 129z"/>
<path style="fill:#6f6049; stroke:none;" d="M100 130L101 131L100 130z"/>
<path style="fill:#959ba2; stroke:none;" d="M149.667 130.333L150.333 130.667L149.667 130.333M261 130L262 131L261 130z"/>
<path style="fill:#6f6049; stroke:none;" d="M278 130L279 131L278 130z"/>
<path style="fill:#959ba2; stroke:none;" d="M298.333 130.667L298.667 131.333L298.333 130.667M444 130L445 131L444 130M504 130L505 131L504 130M139.667 131.333L140.333 131.667L139.667 131.333z"/>
<path style="fill:#6f6049; stroke:none;" d="M141 131L142 132L141 131z"/>
<path style="fill:#232f3f; stroke:none;" d="M178 134C168.252 133.23 158.843 130.954 149 131.001C130.227 131.09 108.076 149.824 124.278 168.957C137.203 184.22 168.368 173.553 175.069 157C177.952 149.88 178 141.561 178 134z"/>
<path style="fill:#6f6049; stroke:none;" d="M159.667 131.333L160.333 131.667L159.667 131.333z"/>
<path style="fill:#959ba2; stroke:none;" d="M161 131L161 132L165 132L161 131M278.333 131.667L278.667 132.333L278.333 131.667z"/>
<path style="fill:#6f6049; stroke:none;" d="M319 131L320 132L319 131M340 131L341 132L340 131M357 131L358 132L357 131z"/>
<path style="fill:#959ba2; stroke:none;" d="M380 131L381 132L380 131M447.667 131.333L448.333 131.667L447.667 131.333z"/>
<path style="fill:#6f6049; stroke:none;" d="M505 131L506 132L505 131z"/>
<path style="fill:#959ba2; stroke:none;" d="M99 132L100 133L99 132M135 132L136 133L135 132z"/>
<path style="fill:#6f6049; stroke:none;" d="M136 132L137 133L136 132M167.667 132.333L168.333 132.667L167.667 132.333z"/>
<path style="fill:#959ba2; stroke:none;" d="M169.667 132.333L170.333 132.667L169.667 132.333M238 132L239 133L238 132z"/>
<path style="fill:#6f6049; stroke:none;" d="M298 132L299 133L298 132z"/>
<path style="fill:#959ba2; stroke:none;" d="M340.333 132.667L340.667 133.333L340.333 132.667M357 132L358 133L357 132z"/>
<path style="fill:#6f6049; stroke:none;" d="M380 132L381 133L380 132M450 132L451 133L450 132z"/>
<path style="fill:#959ba2; stroke:none;" d="M451 132L452 133L451 132z"/>
<path style="fill:#6f6049; stroke:none;" d="M506 132L507 133L506 132M98 133L99 134L98 133z"/>
<path style="fill:#959ba2; stroke:none;" d="M132 133L133 134L132 133z"/>
<path style="fill:#6f6049; stroke:none;" d="M133 133L134 134L133 133M173 133L174 134L173 133z"/>
<path style="fill:#959ba2; stroke:none;" d="M174.667 133.333L175.333 133.667L174.667 133.333z"/>
<path style="fill:#6f6049; stroke:none;" d="M238 133L239 134L238 133M262 133L263 134L262 133z"/>
<path style="fill:#959ba2; stroke:none;" d="M320.333 133.667L320.667 134.333L320.333 133.667z"/>
<path style="fill:#6f6049; stroke:none;" d="M453 133L454 134L453 133z"/>
<path style="fill:#959ba2; stroke:none;" d="M454 133L455 134L454 133M130 134L131 135L130 134M262 134L263 135L262 134M297.333 134.667L297.667 135.333L297.333 134.667M379 134L380 135L379 134z"/>
<path style="fill:#6f6049; stroke:none;" d="M456 134L457 135L456 134z"/>
<path style="fill:#959ba2; stroke:none;" d="M457 134L458 135L457 134M507 134L508 135L507 134z"/>
<path style="fill:#6f6049; stroke:none;" d="M97 135L98 136L97 135z"/>
<path style="fill:#959ba2; stroke:none;" d="M128 135L129 136L128 135M239 135L240 136L239 135z"/>
<path style="fill:#6f6049; stroke:none;" d="M277 135L278 136L277 135M320 135L321 136L320 135M356 135L357 136L356 135M379 135L380 136L379 135M459 135L460 136L459 135z"/>
<path style="fill:#959ba2; stroke:none;" d="M460 135L461 136L460 135z"/>
<path style="fill:#6f6049; stroke:none;" d="M508 135L509 136L508 135z"/>
<path style="fill:#959ba2; stroke:none;" d="M127 136L128 137L127 136z"/>
<path style="fill:#6f6049; stroke:none;" d="M239 136L240 137L239 136z"/>
<path style="fill:#959ba2; stroke:none;" d="M277 136L278 137L277 136z"/>
<path style="fill:#6f6049; stroke:none;" d="M297 136L298 137L297 136M341 136L342 137L341 136z"/>
<path style="fill:#959ba2; stroke:none;" d="M356 136L357 137L356 136M463.667 136.333L464.333 136.667L463.667 136.333M508 136L509 137L508 136z"/>
<path style="fill:#6f6049; stroke:none;" d="M96 137L97 138L96 137M126 137L127 138L126 137M263 137L264 138L263 137z"/>
<path style="fill:#959ba2; stroke:none;" d="M321.333 137.667L321.667 138.333L321.333 137.667M341 137L342 138L341 137M378.333 137.667L378.667 138.333L378.333 137.667z"/>
<path style="fill:#6f6049; stroke:none;" d="M466 137L467 138L466 137z"/>
<path style="fill:#959ba2; stroke:none;" d="M467 137L468 138L467 137z"/>
<path style="fill:#6f6049; stroke:none;" d="M509 137L510 138L509 137M125 138L126 139L125 138z"/>
<path style="fill:#959ba2; stroke:none;" d="M240 138L241 139L240 138M263 138L264 139L263 138M296.333 138.667L296.667 139.333L296.333 138.667z"/>
<path style="fill:#6f6049; stroke:none;" d="M469 138L470 139L469 138z"/>
<path style="fill:#959ba2; stroke:none;" d="M470 138L471 139L470 138z"/>
<path style="fill:#6f6049; stroke:none;" d="M95 139L96 140L95 139M124 139L125 140L124 139M240 139L241 140L240 139M276 139L277 140L276 139M321 139L322 140L321 139M355 139L356 140L355 139M472 139L473 140L472 139z"/>
<path style="fill:#959ba2; stroke:none;" d="M473 139L474 140L473 139z"/>
<path style="fill:#6f6049; stroke:none;" d="M510 139L511 140L510 139z"/>
<path style="fill:#959ba2; stroke:none;" d="M95 140L96 141L95 140M123 140L124 141L123 140M276.333 140.667L276.667 141.333L276.333 140.667z"/>
<path style="fill:#6f6049; stroke:none;" d="M296 140L297 141L296 140M342 140L343 141L342 140z"/>
<path style="fill:#959ba2; stroke:none;" d="M355 140L356 141L355 140z"/>
<path style="fill:#6f6049; stroke:none;" d="M474 140L475 141L474 140z"/>
<path style="fill:#959ba2; stroke:none;" d="M475 140L476 141L475 140M510 140L511 141L510 140M241.333 141.667L241.667 142.333L241.333 141.667z"/>
<path style="fill:#6f6049; stroke:none;" d="M264 141L265 142L264 141z"/>
<path style="fill:#959ba2; stroke:none;" d="M342 141L343 142L342 141M377 141L378 142L377 141M477 141L478 142L477 141z"/>
<path style="fill:#6f6049; stroke:none;" d="M94 142L95 143L94 142M122 142L123 143L122 142z"/>
<path style="fill:#959ba2; stroke:none;" d="M264 142L265 143L264 142M322 142L323 143L322 142z"/>
<path style="fill:#6f6049; stroke:none;" d="M377 142L378 143L377 142z"/>
<path style="fill:#959ba2; stroke:none;" d="M479 142L480 143L479 142M511.333 142.667L511.667 143.333L511.333 142.667M94 143L95 144L94 143M121 143L122 144L121 143z"/>
<path style="fill:#6f6049; stroke:none;" d="M241 143L242 144L241 143M275 143L276 144L275 143z"/>
<path style="fill:#959ba2; stroke:none;" d="M295 143L296 144L295 143z"/>
<path style="fill:#6f6049; stroke:none;" d="M322 143L323 144L322 143M354 143L355 144L354 143M480 143L481 144L480 143M121 144L122 145L121 144z"/>
<path style="fill:#959ba2; stroke:none;" d="M275.333 144.667L275.667 145.333L275.333 144.667z"/>
<path style="fill:#6f6049; stroke:none;" d="M295 144L296 145L295 144M343 144L344 145L343 144z"/>
<path style="fill:#959ba2; stroke:none;" d="M354 144L355 145L354 144M376 144L377 145L376 144M482 144L483 145L482 144z"/>
<path style="fill:#6f6049; stroke:none;" d="M177.333 145.667L177.667 146.333L177.333 145.667z"/>
<path style="fill:#959ba2; stroke:none;" d="M242 145L243 146L242 145z"/>
<path style="fill:#6f6049; stroke:none;" d="M265 145L266 146L265 145z"/>
<path style="fill:#959ba2; stroke:none;" d="M343.333 145.667L343.667 146.333L343.333 145.667z"/>
<path style="fill:#6f6049; stroke:none;" d="M376 145L377 146L376 145z"/>
<path style="fill:#959ba2; stroke:none;" d="M483 145L484 146L483 145z"/>
<path style="fill:#6f6049; stroke:none;" d="M512 145L513 146L512 145M93 146L94 147L93 146z"/>
<path style="fill:#959ba2; stroke:none;" d="M120 146L121 147L120 146z"/>
<path style="fill:#6f6049; stroke:none;" d="M242 146L243 147L242 146z"/>
<path style="fill:#959ba2; stroke:none;" d="M265 146L266 147L265 146M323 146L324 147L323 146M484 146L485 147L484 146M512.333 146.667L512.667 147.333L512.333 146.667M93.3333 147.667L93.6667 148.333L93.3333 147.667z"/>
<path style="fill:#6f6049; stroke:none;" d="M120 147L121 148L120 147z"/>
<path style="fill:#959ba2; stroke:none;" d="M177 147L177 150L178 150L177 147z"/>
<path style="fill:#6f6049; stroke:none;" d="M274 147L275 148L274 147z"/>
<path style="fill:#959ba2; stroke:none;" d="M294 147L295 148L294 147z"/>
<path style="fill:#6f6049; stroke:none;" d="M323 147L324 148L323 147z"/>
<path style="fill:#959ba2; stroke:none;" d="M353.333 147.667L353.667 148.333L353.333 147.667M375 147L376 148L375 147M243 148L244 149L243 148M274.333 148.667L274.667 149.333L274.333 148.667z"/>
<path style="fill:#6f6049; stroke:none;" d="M294 148L295 149L294 148M344 148L345 149L344 148M375 148L376 149L375 148M485 148L486 149L485 148M243 149L244 150L243 149z"/>
<path style="fill:#959ba2; stroke:none;" d="M266.333 149.667L266.667 150.333L266.333 149.667M344.333 149.667L344.667 150.333L344.333 149.667M486 149L487 150L486 149M119 150L119 159L120 159L119 150M324 150L325 151L324 150z"/>
<path style="fill:#6f6049; stroke:none;" d="M352 150L353 151L352 150z"/>
<path style="fill:#959ba2; stroke:none;" d="M374 150L375 151L374 150z"/>
<path style="fill:#6f6049; stroke:none;" d="M486 150L487 151L486 150z"/>
<path style="fill:#959ba2; stroke:none;" d="M244.333 151.667L244.667 152.333L244.333 151.667M293.333 151.667L293.667 152.333L293.333 151.667z"/>
<path style="fill:#6f6049; stroke:none;" d="M324 151L325 152L324 151z"/>
<path style="fill:#959ba2; stroke:none;" d="M352.333 151.667L352.667 152.333L352.333 151.667z"/>
<path style="fill:#6f6049; stroke:none;" d="M374 151L375 152L374 151M176 152L177 153L176 152M267 152L268 153L267 152M273 152L274 153L273 152M345 152L346 153L345 152z"/>
<path style="fill:#959ba2; stroke:none;" d="M487 152L488 153L487 152z"/>
<path style="fill:#6f6049; stroke:none;" d="M92 153L92 158L93 158L92 153z"/>
<path style="fill:#959ba2; stroke:none;" d="M176.333 153.667L176.667 154.333L176.333 153.667M267.333 153.667L267.667 154.333L267.333 153.667M273 153L274 154L273 153z"/>
<path style="fill:#6f6049; stroke:none;" d="M293 153L294 154L293 153z"/>
<path style="fill:#959ba2; stroke:none;" d="M345.333 153.667L345.667 154.333L345.333 153.667M373.333 153.667L373.667 154.333L373.333 153.667z"/>
<path style="fill:#6f6049; stroke:none;" d="M487 153L487 156L488 156L487 153M513 153L513 156L514 156L513 153z"/>
<path style="fill:#959ba2; stroke:none;" d="M325.333 154.667L325.667 155.333L325.333 154.667z"/>
<path style="fill:#6f6049; stroke:none;" d="M351 154L352 155L351 154z"/>
<path style="fill:#959ba2; stroke:none;" d="M245 155L246 156L245 155M292.333 155.667L292.667 156.333L292.333 155.667M351.333 155.667L351.667 156.333L351.333 155.667z"/>
<path style="fill:#6f6049; stroke:none;" d="M175 156L176 157L175 156M245 156L246 157L245 156M268 156L269 157L268 156M272 156L273 157L272 156M325 156L326 157L325 156M203 157L203 160L204 160L203 157z"/>
<path style="fill:#959ba2; stroke:none;" d="M268.333 157.667L268.667 158.333L268.333 157.667M272.333 157.667L272.667 158.333L272.333 157.667z"/>
<path style="fill:#6f6049; stroke:none;" d="M292 157L293 158L292 157M346 157L347 158L346 157z"/>
<path style="fill:#959ba2; stroke:none;" d="M372 157L373 158L372 157z"/>
<path style="fill:#6f6049; stroke:none;" d="M487 157L487 160L488 160L487 157M174 158L175 159L174 158z"/>
<path style="fill:#959ba2; stroke:none;" d="M246 158L247 159L246 158M326.333 158.667L326.667 159.333L326.333 158.667M346 158L347 159L346 158z"/>
<path style="fill:#6f6049; stroke:none;" d="M350 158L351 159L350 158M372 158L373 159L372 158M246 159L247 160L246 159z"/>
<path style="fill:#959ba2; stroke:none;" d="M291.333 159.667L291.667 160.333L291.333 159.667M350.333 159.667L350.667 160.333L350.333 159.667M173 160L174 161L173 160M203 160L203 163L204 163L203 160z"/>
<path style="fill:#6f6049; stroke:none;" d="M269 160L270 161L269 160M271 160L272 161L271 160M326 160L327 161L326 160z"/>
<path style="fill:#959ba2; stroke:none;" d="M371 160L372 161L371 160M487 160L488 161L487 160M512.333 160.667L512.667 161.333L512.333 160.667z"/>
<path style="fill:#6f6049; stroke:none;" d="M120 161L121 162L120 161z"/>
<path style="fill:#959ba2; stroke:none;" d="M247 161L248 162L247 161M269.333 161.667L269.667 162.333L269.333 161.667M271.333 161.667L271.667 162.333L271.333 161.667z"/>
<path style="fill:#6f6049; stroke:none;" d="M291 161L292 162L291 161M347 161L348 162L347 161M371 161L372 162L371 161z"/>
<path style="fill:#959ba2; stroke:none;" d="M120 162L121 163L120 162z"/>
<path style="fill:#6f6049; stroke:none;" d="M247 162L248 163L247 162z"/>
<path style="fill:#959ba2; stroke:none;" d="M327.333 162.667L327.667 163.333L327.333 162.667M347.333 162.667L347.667 163.333L347.333 162.667z"/>
<path style="fill:#6f6049; stroke:none;" d="M349 162L350 163L349 162M512 162L513 163L512 162z"/>
<path style="fill:#959ba2; stroke:none;" d="M93.3333 163.667L93.6667 164.333L93.3333 163.667M171 163L172 164L171 163M349 163L350 164L349 163M370 163L371 164L370 163M486 163L487 164L486 163z"/>
<path style="fill:#6f6049; stroke:none;" d="M121 164L122 165L121 164z"/>
<path style="fill:#959ba2; stroke:none;" d="M170 164L171 165L170 164z"/>
<path style="fill:#6f6049; stroke:none;" d="M270 164L271 165L270 164z"/>
<path style="fill:#959ba2; stroke:none;" d="M290 164L291 165L290 164z"/>
<path style="fill:#6f6049; stroke:none;" d="M327 164L328 165L327 164M370 164L371 165L370 164M93 165L94 166L93 165z"/>
<path style="fill:#959ba2; stroke:none;" d="M121 165L122 166L121 165M169 165L170 166L169 165z"/>
<path style="fill:#6f6049; stroke:none;" d="M204 165L205 166L204 165z"/>
<path style="fill:#959ba2; stroke:none;" d="M248 165L249 166L248 165z"/>
<path style="fill:#6f6049; stroke:none;" d="M290 165L291 166L290 165M348 165L349 166L348 165z"/>
<path style="fill:#959ba2; stroke:none;" d="M485 165L486 166L485 165M511 165L512 166L511 165M168 166L169 167L168 166M204 166L205 167L204 166z"/>
<path style="fill:#6f6049; stroke:none;" d="M248 166L249 167L248 166z"/>
<path style="fill:#959ba2; stroke:none;" d="M348 166L349 167L348 166M369 166L370 167L369 166z"/>
<path style="fill:#6f6049; stroke:none;" d="M484 166L485 167L484 166M511 166L512 167L511 166z"/>
<path style="fill:#959ba2; stroke:none;" d="M122 167L123 168L122 167M167 167L168 168L167 167M328 167L329 168L328 167z"/>
<path style="fill:#6f6049; stroke:none;" d="M369 167L370 168L369 167z"/>
<path style="fill:#959ba2; stroke:none;" d="M414 167L415 168L414 167M419 167L420 168L419 167M94 168L95 169L94 168z"/>
<path style="fill:#6f6049; stroke:none;" d="M123 168L124 169L123 168M165 168L166 169L165 168z"/>
<path style="fill:#959ba2; stroke:none;" d="M205 168L206 169L205 168M249 168L250 169L249 168M289 168L290 169L289 168z"/>
<path style="fill:#6f6049; stroke:none;" d="M328 168L329 169L328 168z"/>
<path style="fill:#959ba2; stroke:none;" d="M413 168L414 169L413 168M421 168L422 169L421 168z"/>
<path style="fill:#6f6049; stroke:none;" d="M422 168L423 169L422 168z"/>
<path style="fill:#959ba2; stroke:none;" d="M510 168L511 169L510 168z"/>
<path style="fill:#6f6049; stroke:none;" d="M94 169L95 170L94 169M124 169L125 170L124 169z"/>
<path style="fill:#959ba2; stroke:none;" d="M164 169L165 170L164 169z"/>
<path style="fill:#6f6049; stroke:none;" d="M249 169L250 170L249 169M289 169L290 170L289 169z"/>
<path style="fill:#959ba2; stroke:none;" d="M368.333 169.667L368.667 170.333L368.333 169.667M424 169L425 170L424 169z"/>
<path style="fill:#6f6049; stroke:none;" d="M481 169L482 170L481 169M510 169L511 170L510 169M125 170L126 171L125 170M162 170L163 171L162 170z"/>
<path style="fill:#959ba2; stroke:none;" d="M163 170L164 171L163 170z"/>
<path style="fill:#6f6049; stroke:none;" d="M206 170L207 171L206 170M412 170L412 181L413 181L412 170z"/>
<path style="fill:#959ba2; stroke:none;" d="M426 170L427 171L426 170z"/>
<path style="fill:#6f6049; stroke:none;" d="M427 170L428 171L427 170z"/>
<path style="fill:#959ba2; stroke:none;" d="M480 170L481 171L480 170M509 170L510 171L509 170M95 171L96 172L95 171z"/>
<path style="fill:#6f6049; stroke:none;" d="M126 171L127 172L126 171z"/>
<path style="fill:#959ba2; stroke:none;" d="M161 171L162 172L161 171M206 171L207 172L206 171M250 171L251 172L250 171M329 171L330 172L329 171M429 171L430 172L429 171z"/>
<path style="fill:#6f6049; stroke:none;" d="M430 171L431 172L430 171M478 171L479 172L478 171z"/>
<path style="fill:#959ba2; stroke:none;" d="M479 171L480 172L479 171z"/>
<path style="fill:#6f6049; stroke:none;" d="M509 171L510 172L509 171M95 172L96 173L95 172z"/>
<path style="fill:#959ba2; stroke:none;" d="M127 172L128 173L127 172z"/>
<path style="fill:#6f6049; stroke:none;" d="M158 172L159 173L158 172z"/>
<path style="fill:#959ba2; stroke:none;" d="M159 172L160 173L159 172z"/>
<path style="fill:#6f6049; stroke:none;" d="M250 172L251 173L250 172z"/>
<path style="fill:#959ba2; stroke:none;" d="M288 172L289 173L288 172z"/>
<path style="fill:#6f6049; stroke:none;" d="M329 172L330 173L329 172z"/>
<path style="fill:#959ba2; stroke:none;" d="M432 172L433 173L432 172z"/>
<path style="fill:#6f6049; stroke:none;" d="M433 172L434 173L433 172M476 172L477 173L476 172z"/>
<path style="fill:#959ba2; stroke:none;" d="M477 172L478 173L477 172M508 172L509 173L508 172z"/>
<path style="fill:#6f6049; stroke:none;" d="M129 173L130 174L129 173M155 173L156 174L155 173z"/>
<path style="fill:#959ba2; stroke:none;" d="M156 173L157 174L156 173M207 173L208 174L207 173z"/>
<path style="fill:#6f6049; stroke:none;" d="M288 173L289 174L288 173z"/>
<path style="fill:#959ba2; stroke:none;" d="M367 173L368 174L367 173M436 173L437 174L436 173z"/>
<path style="fill:#6f6049; stroke:none;" d="M437 173L438 174L437 173z"/>
<path style="fill:#959ba2; stroke:none;" d="M474 173L475 174L474 173z"/>
<path style="fill:#6f6049; stroke:none;" d="M508 173L509 174L508 173z"/>
<path style="fill:#959ba2; stroke:none;" d="M96 174L97 175L96 174z"/>
<path style="fill:#6f6049; stroke:none;" d="M131 174L132 175L131 174M152 174L153 175L152 174z"/>
<path style="fill:#959ba2; stroke:none;" d="M153 174L154 175L153 174M251.333 174.667L251.667 175.333L251.333 174.667z"/>
<path style="fill:#6f6049; stroke:none;" d="M367 174L368 175L367 174z"/>
<path style="fill:#959ba2; stroke:none;" d="M440.667 174.333L441.333 174.667L440.667 174.333z"/>
<path style="fill:#6f6049; stroke:none;" d="M442 174L443 175L442 174M470 174L471 175L470 174z"/>
<path style="fill:#959ba2; stroke:none;" d="M471 174L472 175L471 174M507 174L508 175L507 174M133.667 175.333L134.333 175.667L133.667 175.333z"/>
<path style="fill:#6f6049; stroke:none;" d="M135 175L136 176L135 175M146.667 175.333L147.333 175.667L146.667 175.333z"/>
<path style="fill:#959ba2; stroke:none;" d="M148.667 175.333L149.333 175.667L148.667 175.333M179 175L180 176L179 175M208 175L209 176L208 175M330 175L331 176L330 175M446 175L446 176L449 176L446 175z"/>
<path style="fill:#6f6049; stroke:none;" d="M449 175L449 176L453 176L449 175M462 175L462 176L465 176L462 175z"/>
<path style="fill:#959ba2; stroke:none;" d="M465 175L465 176L468 176L465 175M97 176L98 177L97 176z"/>
<path style="fill:#6f6049; stroke:none;" d="M178 176L179 177L178 176z"/>
<path style="fill:#959ba2; stroke:none;" d="M287.333 176.667L287.667 177.333L287.333 176.667z"/>
<path style="fill:#6f6049; stroke:none;" d="M330 176L331 177L330 176z"/>
<path style="fill:#959ba2; stroke:none;" d="M366 176L367 177L366 176z"/>
<path style="fill:#6f6049; stroke:none;" d="M506 176L507 177L506 176M177 177L178 178L177 177z"/>
<path style="fill:#959ba2; stroke:none;" d="M180 177L181 178L180 177M209 177L210 178L209 177z"/>
<path style="fill:#6f6049; stroke:none;" d="M366 177L367 178L366 177z"/>
<path style="fill:#959ba2; stroke:none;" d="M505 177L506 178L505 177z"/>
<path style="fill:#6f6049; stroke:none;" d="M98 178L99 179L98 178M176 178L177 179L176 178z"/>
<path style="fill:#959ba2; stroke:none;" d="M252 178L253 179L252 178z"/>
<path style="fill:#6f6049; stroke:none;" d="M287 178L288 179L287 178z"/>
<path style="fill:#959ba2; stroke:none;" d="M504 178L505 179L504 178M99 179L100 180L99 179z"/>
<path style="fill:#6f6049; stroke:none;" d="M175 179L176 180L175 179z"/>
<path style="fill:#959ba2; stroke:none;" d="M181 179L182 180L181 179M210 179L210 182L211 182L210 179z"/>
<path style="fill:#6f6049; stroke:none;" d="M252 179L253 180L252 179z"/>
<path style="fill:#959ba2; stroke:none;" d="M331.333 179.667L331.667 180.333L331.333 179.667M365 179L366 180L365 179z"/>
<path style="fill:#6f6049; stroke:none;" d="M174 180L175 181L174 180z"/>
<path style="fill:#959ba2; stroke:none;" d="M286.333 180.667L286.667 181.333L286.333 180.667z"/>
<path style="fill:#6f6049; stroke:none;" d="M365 180L366 181L365 180M100 181L101 182L100 181M173 181L174 182L173 181M182 181L183 182L182 181z"/>
<path style="fill:#959ba2; stroke:none;" d="M253 181L254 182L253 181z"/>
<path style="fill:#6f6049; stroke:none;" d="M331 181L332 182L331 181z"/>
<path style="fill:#959ba2; stroke:none;" d="M101 182L102 183L101 182z"/>
<path style="fill:#6f6049; stroke:none;" d="M172 182L173 183L172 182M210 182L211 183L210 182M253 182L254 183L253 182M286 182L287 183L286 182z"/>
<path style="fill:#959ba2; stroke:none;" d="M364 182L365 183L364 182M102 183L103 184L102 183z"/>
<path style="fill:#6f6049; stroke:none;" d="M183 183L184 184L183 183z"/>
<path style="fill:#959ba2; stroke:none;" d="M332.333 183.667L332.667 184.333L332.333 183.667z"/>
<path style="fill:#6f6049; stroke:none;" d="M364 183L365 184L364 183z"/>
<path style="fill:#959ba2; stroke:none;" d="M413 183L414 184L413 183M103 184L104 185L103 184M169 184L170 185L169 184M184 184L185 185L184 184M254 184L255 185L254 184M285.333 184.667L285.667 185.333L285.333 184.667M498 184L499 185L498 184M104 185L105 186L104 185z"/>
<path style="fill:#6f6049; stroke:none;" d="M168 185L169 186L168 185M254 185L255 186L254 185M332 185L333 186L332 185z"/>
<path style="fill:#959ba2; stroke:none;" d="M363.333 185.667L363.667 186.333L363.333 185.667M497 185L498 186L497 185M105 186L106 187L105 186M166 186L167 187L166 186z"/>
<path style="fill:#6f6049; stroke:none;" d="M185 186L186 187L185 186z"/>
<path style="fill:#959ba2; stroke:none;" d="M206 186L207 187L206 186z"/>
<path style="fill:#6f6049; stroke:none;" d="M285 186L286 187L285 186z"/>
<path style="fill:#959ba2; stroke:none;" d="M416 186L417 187L416 186z"/>
<path style="fill:#6f6049; stroke:none;" d="M496 186L497 187L496 186M106 187L107 188L106 187z"/>
<path style="fill:#959ba2; stroke:none;" d="M165 187L166 188L165 187M186 187L187 188L186 187z"/>
<path style="fill:#6f6049; stroke:none;" d="M205 187L206 188L205 187z"/>
<path style="fill:#959ba2; stroke:none;" d="M255 187L256 188L255 187M333 187L334 188L333 187z"/>
<path style="fill:#6f6049; stroke:none;" d="M417 187L418 188L417 187z"/>
<path style="fill:#959ba2; stroke:none;" d="M494 187L495 188L494 187z"/>
<path style="fill:#6f6049; stroke:none;" d="M107 188L108 189L107 188z"/>
<path style="fill:#959ba2; stroke:none;" d="M163 188L164 189L163 188M187 188L188 189L187 188M203 188L204 189L203 188z"/>
<path style="fill:#6f6049; stroke:none;" d="M255 188L256 189L255 188z"/>
<path style="fill:#959ba2; stroke:none;" d="M284 188L285 189L284 188z"/>
<path style="fill:#6f6049; stroke:none;" d="M333 188L334 189L333 188z"/>
<path style="fill:#959ba2; stroke:none;" d="M362 188L363 189L362 188M419 188L420 189L419 188z"/>
<path style="fill:#6f6049; stroke:none;" d="M493 188L494 189L493 188z"/>
<path style="fill:#959ba2; stroke:none;" d="M109 189L110 190L109 189M161 189L162 190L161 189z"/>
<path style="fill:#6f6049; stroke:none;" d="M162 189L163 190L162 189M202 189L203 190L202 189z"/>
<path style="fill:#959ba2; stroke:none;" d="M256 189L257 190L256 189M421 189L422 190L421 189z"/>
<path style="fill:#6f6049; stroke:none;" d="M491 189L492 190L491 189M110 190L111 191L110 190z"/>
<path style="fill:#959ba2; stroke:none;" d="M111 190L112 191L111 190M159 190L160 191L159 190z"/>
<path style="fill:#6f6049; stroke:none;" d="M160 190L161 191L160 190M188 190L189 191L188 190z"/>
<path style="fill:#959ba2; stroke:none;" d="M200 190L201 191L200 190z"/>
<path style="fill:#6f6049; stroke:none;" d="M283 190L284 191L283 190M334 190L335 191L334 190M361 190L362 191L361 190M423 190L424 191L423 190z"/>
<path style="fill:#959ba2; stroke:none;" d="M424 190L425 191L424 190z"/>
<path style="fill:#6f6049; stroke:none;" d="M489 190L490 191L489 190M112 191L113 192L112 191z"/>
<path style="fill:#959ba2; stroke:none;" d="M157 191L158 192L157 191z"/>
<path style="fill:#6f6049; stroke:none;" d="M158 191L159 192L158 191M189 191L190 192L189 191M199 191L200 192L199 191z"/>
<path style="fill:#959ba2; stroke:none;" d="M258 191L259 192L258 191z"/>
<path style="fill:#6f6049; stroke:none;" d="M282 191L283 192L282 191M335 191L336 192L335 191M360 191L361 192L360 191M426 191L427 192L426 191z"/>
<path style="fill:#959ba2; stroke:none;" d="M427 191L428 192L427 191M486 191L487 192L486 191z"/>
<path style="fill:#6f6049; stroke:none;" d="M487 191L488 192L487 191M114 192L115 193L114 192z"/>
<path style="fill:#959ba2; stroke:none;" d="M115 192L116 193L115 192M155 192L156 193L155 192M191 192L192 193L191 192M197 192L198 193L197 192z"/>
<path style="fill:#6f6049; stroke:none;" d="M260 192L261 193L260 192z"/>
<path style="fill:#959ba2; stroke:none;" d="M261 192L261 193L280 193L261 192z"/>
<path style="fill:#6f6049; stroke:none;" d="M280 192L281 193L280 192M337 192L338 193L337 192z"/>
<path style="fill:#959ba2; stroke:none;" d="M338 192L338 193L341 193L338 192M355 192L355 193L358 193L355 192z"/>
<path style="fill:#6f6049; stroke:none;" d="M358 192L359 193L358 192M429 192L430 193L429 192z"/>
<path style="fill:#959ba2; stroke:none;" d="M430 192L431 193L430 192M484 192L485 193L484 192M117 193L118 194L117 193M152 193L153 194L152 193z"/>
<path style="fill:#6f6049; stroke:none;" d="M153 193L154 194L153 193M193 193L193 194L196 194L193 193z"/>
<path style="fill:#959ba2; stroke:none;" d="M433.667 193.333L434.333 193.667L433.667 193.333M480.667 193.333L481.333 193.667L480.667 193.333M120.667 194.333L121.333 194.667L120.667 194.333M148 194L149 195L148 194z"/>
<path style="fill:#6f6049; stroke:none;" d="M149 194L150 195L149 194M437 194L438 195L437 194z"/>
<path style="fill:#959ba2; stroke:none;" d="M438 194L439 195L438 194M477 194L478 195L477 194z"/>
<path style="fill:#6f6049; stroke:none;" d="M478 194L479 195L478 194M124 195L125 196L124 195z"/>
<path style="fill:#959ba2; stroke:none;" d="M125 195L125 196L128 196L125 195M142.667 195.333L143.333 195.667L142.667 195.333z"/>
<path style="fill:#6f6049; stroke:none;" d="M144.667 195.333L145.333 195.667L144.667 195.333M441.667 195.333L442.333 195.667L441.667 195.333z"/>
<path style="fill:#959ba2; stroke:none;" d="M443.667 195.333L444.333 195.667L443.667 195.333M472.667 195.333L473.333 195.667L472.667 195.333z"/>
<path style="fill:#6f6049; stroke:none;" d="M474 195L475 196L474 195M448 196L448 197L451 197L448 196z"/>
<path style="fill:#959ba2; stroke:none;" d="M451 196L451 197L467 197L451 196z"/>
<path style="fill:#6f6049; stroke:none;" d="M467.667 196.333L468.333 196.667L467.667 196.333M490 224L490 225L510 225L490 224M482 225L482 226L485 226L482 225z"/>
<path style="fill:#fd9802; stroke:none;" d="M497 309C507.42 305.905 513.791 294.903 518.988 286C525.848 274.249 529.654 260.395 531.572 247C532.277 242.073 533.188 234.394 529.486 230.419C520.716 221.003 493.352 224.044 482 225.92C472.23 227.534 462.607 230.204 454.001 235.232C451.58 236.646 446.652 239.209 447.176 242.697C447.813 246.94 460.199 243.948 463 243.576C474.038 242.109 501.714 236.96 509.142 248.108C512.199 252.696 510.569 259.014 509.55 264C506.933 276.805 493.573 296.508 497 309z"/>
<path style="fill:#6f6049; stroke:none;" d="M515 225L515 226L518 226L515 225M477.667 226.333L478.333 226.667L477.667 226.333M520.667 226.333L521.333 226.667L520.667 226.333M472.667 227.333L473.333 227.667L472.667 227.333M524.667 227.333L525.333 227.667L524.667 227.333M469.667 228.333L470.333 228.667L469.667 228.333M527 228L528 229L527 228M466 229L467 230L466 229M529 229L530 230L529 229M463 230L464 231L463 230M530 230L531 231L530 230M461 231L462 232L461 231M459 232L460 233L459 232M531.333 232.667L531.667 233.333L531.333 232.667M76 233L76 234L80 234L76 233z"/>
<path style="fill:#fd9802; stroke:none;" d="M75.6188 235.031C72.9777 237.15 75.6024 240.548 77.2284 242.282C82.4772 247.878 88.937 252.675 95 257.349C119.007 275.854 145.784 291.618 174 302.796C252.028 333.708 342.168 336.074 421 306.192C438.663 299.497 455.841 291.612 472 281.797C477.727 278.319 486.146 274.353 489.987 268.7C495.067 261.222 485.916 258.166 480 259.785C462.771 264.503 446.292 272.492 429 277.421C346.202 301.022 259.515 299.711 177 275.576C150.794 267.91 125.382 257.469 101 245.247C96.1606 242.821 80.8269 230.853 75.6188 235.031z"/>
<path style="fill:#6f6049; stroke:none;" d="M81 234L82 235L81 234M455 234L456 235L455 234M83 235L84 236L83 235M453 235L454 236L453 235M84 236L85 237L84 236M451 236L452 237L451 236M86 237L87 238L86 237M450 237L451 238L450 237M88 238L89 239L88 238M448 238L449 239L448 238M74 239L75 240L74 239M90 239L91 240L90 239M447 239L448 240L447 239M92 240L93 241L92 240M76 241L77 242L76 241M93 241L94 242L93 241M446 241L447 242L446 241M77 242L78 243L77 242M95 242L96 243L95 242M474 242L474 243L497 243L474 242M78 243L79 244L78 243M97 243L98 244L97 243M446 243L447 244L446 243M463 243L463 244L468 244L463 243M501.667 243.333L502.333 243.667L501.667 243.333M79 244L80 245L79 244M99 244L100 245L99 244M454 244L454 245L458 245L454 244M504.667 244.333L505.333 244.667L504.667 244.333M80 245L81 246L80 245M101 245L102 246L101 245M507 245L508 246L507 245M103 246L104 247L103 246M508 246L509 247L508 246M105 247L106 248L105 247M509 247L510 248L509 247M531 247L531 250L532 250L531 247M84 248L85 249L84 248M107 248L108 249L107 248M85 249L86 250L85 249M109 249L110 250L109 249M86 250L87 251L86 250M111 250L112 251L111 250M510 250L510 259L511 259L510 250M113 251L114 252L113 251M116 252L117 253L116 252M90 253L91 254L90 253M118 253L119 254L118 253M530 253L530 256L531 256L530 253M91 254L92 255L91 254M120 254L121 255L120 254M92 255L93 256L92 255M122 255L123 256L122 255M124.667 256.333L125.333 256.667L124.667 256.333M95 257L96 258L95 257M127 257L128 258L127 257M96 258L97 259L96 258M129 258L130 259L129 258M482 258L482 259L487 259L482 258M529.333 258.667L529.667 259.333L529.333 258.667M131.667 259.333L132.333 259.667L131.667 259.333M480 259L481 260L480 259M488 259L489 260L488 259M99 260L100 261L99 260M134 260L135 261L134 260M477 260L478 261L477 260M100 261L101 262L100 261M136 261L137 262L136 261M475 261L476 262L475 261M139 262L140 263L139 262M472 262L473 263L472 262M491 262L492 263L491 262M509 262L509 265L510 265L509 262M528.333 262.667L528.667 263.333L528.333 262.667M103 263L104 264L103 263M141.667 263.333L142.333 263.667L141.667 263.333M470 263L471 264L470 263M104 264L105 265L104 264M144 264L145 265L144 264M467 264L468 265L467 264M106 265L107 266L106 265M147 265L148 266L147 265M464.667 265.333L465.333 265.667L464.667 265.333M527.333 265.667L527.667 266.333L527.333 265.667M107 266L108 267L107 266M149.667 266.333L150.333 266.667L149.667 266.333M462 266L463 267L462 266M491 266L492 267L491 266M152 267L153 268L152 267M459 267L460 268L459 267M508.333 267.667L508.667 268.333L508.333 267.667M110 268L111 269L110 268M155 268L156 269L155 268M456.667 268.333L457.333 268.667L456.667 268.333M490 268L491 269L490 268M526.333 268.667L526.667 269.333L526.333 268.667M158 269L159 270L158 269M453.667 269.333L454.333 269.667L453.667 269.333M113 270L114 271L113 270M161 270L162 271L161 270M450.667 270.333L451.333 270.667L450.667 270.333M488 270L489 271L488 270M164 271L165 272L164 271M447.667 271.333L448.333 271.667L447.667 271.333M487 271L488 272L487 271M507 271L508 272L507 271M525 271L526 272L525 271M116 272L117 273L116 272M167 272L168 273L167 272M444.667 272.333L445.333 272.667L444.667 272.333M170 273L171 274L170 273M441.667 273.333L442.333 273.667L441.667 273.333M484 273L485 274L484 273M119 274L120 275L119 274M173.667 274.333L174.333 274.667L173.667 274.333M438.667 274.333L439.333 274.667L438.667 274.333M483 274L484 275L483 274M506.333 274.667L506.667 275.333L506.333 274.667M524 274L525 275L524 274M176.667 275.333L177.333 275.667L176.667 275.333M435 275L436 276L435 275M481 275L482 276L481 275M122 276L123 277L122 276M180 276L181 277L180 276M431.667 276.333L432.333 276.667L431.667 276.333M480 276L481 277L480 276M523 276L524 277L523 276M124 277L125 278L124 277M183.667 277.333L184.333 277.667L183.667 277.333M428 277L429 278L428 277M478 277L479 278L478 277M505.333 277.667L505.667 278.333L505.333 277.667M125 278L126 279L125 278M187.667 278.333L188.333 278.667L187.667 278.333M424.667 278.333L425.333 278.667L424.667 278.333M477 278L478 279L477 278M127 279L128 280L127 279M191 279L192 280L191 279M420.667 279.333L421.333 279.667L420.667 279.333M475 279L476 280L475 279M522 279L523 280L522 279M129 280L130 281L129 280M194.667 280.333L195.333 280.667L194.667 280.333M416.667 280.333L417.333 280.667L416.667 280.333M474 280L475 281L474 280M504.333 280.667L504.667 281.333L504.333 280.667M130 281L131 282L130 281M198.667 281.333L199.333 281.667L198.667 281.333M412.667 281.333L413.333 281.667L412.667 281.333M472 281L473 282L472 281M521 281L522 282L521 281M132 282L133 283L132 282M203.667 282.333L204.333 282.667L203.667 282.333M408.667 282.333L409.333 282.667L408.667 282.333M470 282L471 283L470 282M134 283L135 284L134 283M207.667 283.333L208.333 283.667L207.667 283.333M404.667 283.333L405.333 283.667L404.667 283.333M469 283L470 284L469 283M503.333 283.667L503.667 284.333L503.333 283.667M520 283L521 284L520 283M136 284L137 285L136 284M212.667 284.333L213.333 284.667L212.667 284.333M399.667 284.333L400.333 284.667L399.667 284.333M467 284L468 285L467 284M137 285L138 286L137 285M216 285L216 286L219 286L216 285M394 285L394 286L397 286L394 285M465 285L466 286L465 285M139 286L140 287L139 286M221 286L221 287L224 287L221 286M389 286L389 287L392 287L389 286M502 286L503 287L502 286M518 286L519 287L518 286M141 287L142 288L141 287M227.667 287.333L228.333 287.667L227.667 287.333M384.667 287.333L385.333 287.667L384.667 287.333M462 287L463 288L462 287M143 288L144 289L143 288M232 288L232 289L235 289L232 288M378 288L378 289L381 289L378 288M460 288L461 289L460 288M517 288L518 289L517 288M145 289L146 290L145 289M239 289L239 290L242 290L239 289M371 289L371 290L375 290L371 289M458 289L459 290L458 289M501 289L502 290L501 289M147 290L148 291L147 290M246 290L246 291L249 291L246 290M364 290L364 291L368 291L364 290M456 290L457 291L456 290M516 290L517 291L516 290M149 291L150 292L149 291M253 291L253 292L258 292L253 291M356 291L356 292L360 292L356 291M454 291L455 292L454 291M515 291L516 292L515 291M151 292L152 293L151 292M262 292L262 293L267 293L262 292M347 292L347 293L352 293L347 292M452 292L453 293L452 292M500 292L501 293L500 292M153 293L154 294L153 293M274 293L274 294L281 294L274 293M334 293L334 294L341 294L334 293M450 293L451 294L450 293M514 293L515 294L514 293M155 294L156 295L155 294M292 294L292 295L324 295L292 294M448 294L449 295L448 294M499 294L500 295L499 294M513 294L514 295L513 294M157 295L158 296L157 295M446 295L447 296L446 295M159 296L160 297L159 296M444 296L445 297L444 296M161 297L162 298L161 297M442 297L443 298L442 297M498 297L499 298L498 297M511 297L512 298L511 297M163 298L164 299L163 298M439.667 298.333L440.333 298.667L439.667 298.333M510 298L511 299L510 298M166 299L167 300L166 299M437 299L438 300L437 299M497 299L498 300L497 299M509 299L510 300L509 299M168 300L169 301L168 300M435 300L436 301L435 300M170 301L171 302L170 301M432.667 301.333L433.333 301.667L432.667 301.333M173 302L174 303L173 302M430 302L431 303L430 302M496 302L497 303L496 302M175 303L176 304L175 303M428 303L429 304L428 303M178 304L179 305L178 304M425 304L426 305L425 304M495 304L495 308L496 308L495 304M180.667 305.333L181.333 305.667L180.667 305.333M422.667 305.333L423.333 305.667L422.667 305.333M183 306L184 307L183 306M420 306L421 307L420 306M186 307L187 308L186 307M417 307L418 308L417 307M501 307L502 308L501 307M189 308L190 309L189 308M414 308L415 309L414 308M496 308L497 309L496 308M499.667 308.333L500.333 308.667L499.667 308.333M191.667 309.333L192.333 309.667L191.667 309.333M411 309L412 310L411 309M194.667 310.333L195.333 310.667L194.667 310.333M408 310L409 311L408 310M197.667 311.333L198.333 311.667L197.667 311.333M405 311L406 312L405 311M200.667 312.333L201.333 312.667L200.667 312.333M401.667 312.333L402.333 312.667L401.667 312.333M204 313L205 314L204 313M398.667 313.333L399.333 313.667L398.667 313.333M207.667 314.333L208.333 314.667L207.667 314.333M395 314L396 315L395 314M211.667 315.333L212.333 315.667L211.667 315.333M391.667 315.333L392.333 315.667L391.667 315.333M214.667 316.333L215.333 316.667L214.667 316.333M387.667 316.333L388.333 316.667L387.667 316.333M218.667 317.333L219.333 317.667L218.667 317.333M383.667 317.333L384.333 317.667L383.667 317.333M222.667 318.333L223.333 318.667L222.667 318.333M379.667 318.333L380.333 318.667L379.667 318.333M227.667 319.333L228.333 319.667L227.667 319.333M374.667 319.333L375.333 319.667L374.667 319.333M231 320L231 321L234 321L231 320M369 320L369 321L372 321L369 320M236 321L236 322L239 322L236 321M364 321L364 322L367 322L364 321M242.667 322.333L243.333 322.667L242.667 322.333M359.667 322.333L360.333 322.667L359.667 322.333M247 323L247 324L251 324L247 323M352 323L352 324L355 324L352 323M254 324L254 325L258 325L254 324M345 324L345 325L349 325L345 324M262 325L262 326L266 326L262 325M337 325L337 326L341 326L337 325M272 326L272 327L278 327L272 326M326 326L326 327L332 327L326 326M286 327L286 328L317 328L286 327z"/>
</svg>
