<svg viewBox="397 67 300 300" xmlns="http://www.w3.org/2000/svg">
  <rect x="0" y="0" width="300" height="300" fill="#6200EE"/>
<rect x="397" y="67" width="300" height="300" rx="20" fill="#6200EE"/>
<path d="M607.031 198.843C607.031 196.789 608.697 195.123 610.752 195.123C612.806 195.123 614.472 196.789 614.472 198.843V213.914L638.56 213.914V198.843C638.56 196.789 640.225 195.123 642.28 195.123C644.335 195.123 646 196.789 646 198.843V236.047C646 238.102 644.335 239.767 642.28 239.767C640.225 239.767 638.56 238.102 638.56 236.047V221.228L614.472 221.228V236.047C614.472 238.102 612.806 239.767 610.752 239.767C608.697 239.767 607.031 238.102 607.031 236.047V198.843Z" fill="white"/>
<path fill-rule="evenodd" clip-rule="evenodd" d="M568.785 196.613C572.866 194.977 577.337 194.575 581.643 195.458C585.95 196.34 589.903 198.467 593.011 201.576C594.538 203.103 594.538 205.578 593.011 207.105C591.484 208.632 589.009 208.632 587.482 207.105C585.456 205.079 582.88 203.693 580.074 203.118C577.267 202.543 574.354 202.804 571.695 203.87C569.035 204.936 566.748 206.76 565.115 209.114C563.483 211.468 562.578 214.25 562.512 217.114C562.447 219.978 563.224 222.799 564.746 225.225C566.269 227.652 568.471 229.578 571.078 230.765C573.686 231.951 576.585 232.346 579.415 231.9C582.245 231.454 584.881 230.187 586.998 228.256C588.593 226.801 591.066 226.915 592.521 228.51C593.976 230.105 593.863 232.577 592.268 234.033C589.02 236.996 584.974 238.94 580.631 239.624C576.289 240.308 571.841 239.702 567.84 237.881C563.839 236.061 560.46 233.105 558.123 229.381C555.787 225.658 554.595 221.33 554.695 216.935C554.796 212.54 556.185 208.272 558.69 204.659C561.194 201.046 564.705 198.248 568.785 196.613Z" fill="white"/>
<path fill-rule="evenodd" clip-rule="evenodd" d="M524.996 195.001C526.485 195.003 527.843 195.85 528.5 197.186L546.723 234.264C547.675 236.201 546.876 238.544 544.938 239.497C543.001 240.449 540.658 239.65 539.705 237.712L524.979 207.749L510.145 237.722C509.187 239.657 506.842 240.45 504.907 239.492C502.972 238.534 502.179 236.189 503.137 234.254L521.487 197.176C522.147 195.842 523.508 194.999 524.996 195.001Z" fill="white"/>
<path fill-rule="evenodd" clip-rule="evenodd" d="M450.617 195.151C452.17 194.691 453.84 195.306 454.723 196.663L470.196 220.452L485.669 196.663C486.552 195.306 488.222 194.691 489.775 195.151C491.327 195.612 492.392 197.038 492.392 198.658V235.987C492.392 238.007 490.755 239.645 488.735 239.645C486.715 239.645 485.077 238.007 485.077 235.987V210.988L473.262 229.153C472.587 230.191 471.434 230.817 470.196 230.817C468.959 230.817 467.805 230.191 467.13 229.153L455.315 210.988V235.987C455.315 238.007 453.677 239.645 451.657 239.645C449.637 239.645 448 238.007 448 235.987V198.658C448 197.038 449.065 195.612 450.617 195.151Z" fill="white"/>
</svg>
